{"title":"Disturbia 2007 720p BRRip H264 AAC-Rx(Phoenix-RG)","uid":5839431,"size":1656189738,"categoryP":"video","categoryS":"hd___movies","magnet":"?xt=urn:btih:2d00d5903df63fd426388d45d87cc8ce6c298ddc&amp;dn=Disturbia+2007+720p+BRRip+H264+AAC-Rx%28Phoenix-RG%29&amp;tr=udp%3A%2F%2Ftracker.openbittorrent.com%3A80&amp;tr=udp%3A%2F%2Fopen.demonii.com%3A1337&amp;tr=udp%3A%2F%2Ftracker.coppersurfer.tk%3A6969&amp;tr=udp%3A%2F%2Fexodus.desync.com%3A6969","seeders":1,"leechers":0,"uploader":"rev-x","files":8,"time":1284874834,"description":" Disturbia 2007 720p BRRip H264 AAC-Rx(Phoenix-RG).mp4\n      Format : MPEG-4 / AVC\n      File size : 1.54 GiB\n      Duration : 1h 44mn\n      Bit rate : 1 800 Kbps\n      Width : 1 280 pixels\n      Height : 720 pixels\n      Display aspect ratio : 16/9\n      Frame rate : 23.976 fps\n      Resolution : 24 bits\n      Colorimetry : 4:2:0\n      Scan type : Progressive\n      Bits/(Pixel*Frame) : 0.081\n      Stream size : 1.31 GiB (85%)\n\nVIDEO:\n\n      Format : AAC / LC\n      Duration : 1h 44mn\n      Bit rate : 309 Kbps\n      Channel(s) : 6 channels\n      Channel positions : Front: L C R, Rear: L R, LFE\n      Sampling rate : 48.0 KHz\n      Resolution : 16 bits\n      Stream size : 231 MiB (15%)\n\nSCREEN:\n &lt;a href=&quot;\nhttp://img13.imageshack.us/img13/2514/vlcsnap2010091609h19m25.jpg&quot; rel=&quot;nofollow&quot; target=&quot;_NEW&quot;&gt;\nhttp://img13.imageshack.us/img13/2514/vlcsnap2010091609h19m25.jpg&lt;/a&gt;\n &lt;a href=&quot;\nhttp://img690.imageshack.us/img690/3850/vlcsnap2010091609h10m33.jpg&quot; rel=&quot;nofollow&quot; target=&quot;_NEW&quot;&gt;\nhttp://img690.imageshack.us/img690/3850/vlcsnap2010091609h10m33.jpg&lt;/a&gt;\n &lt;a href=&quot;\nhttp://img266.imageshack.us/img266/452/vlcsnap2010091609h17m24.jpg&quot; rel=&quot;nofollow&quot; target=&quot;_NEW&quot;&gt;\nhttp://img266.imageshack.us/img266/452/vlcsnap2010091609h17m24.jpg&lt;/a&gt;","torrent":{"xt":"urn:btih:2d00d5903df63fd426388d45d87cc8ce6c298ddc","amp;dn":"Disturbia+2007+720p+BRRip+H264+AAC-Rx%28Phoenix-RG%29","amp;tr":["udp%3A%2F%2Ftracker.openbittorrent.com%3A80","udp%3A%2F%2Fopen.demonii.com%3A1337","udp%3A%2F%2Ftracker.coppersurfer.tk%3A6969","udp%3A%2F%2Fexodus.desync.com%3A6969"],"infoHash":"2d00d5903df63fd426388d45d87cc8ce6c298ddc","infoHashBuffer":{"type":"Buffer","data":[45,0,213,144,61,246,63,212,38,56,141,69,216,124,200,206,108,41,141,220]},"announce":[],"urlList":[]}}